<svg xmlns:inkscape="http://www.inkscape.org/namespaces/inkscape" xmlns:sodipodi="http://sodipodi.sourceforge.net/DTD/sodipodi-0.dtd" xmlns="http://www.w3.org/2000/svg" xmlns:svg="http://www.w3.org/2000/svg" version="1.1" id="svg1" inkscape:version="1.3 (0e150ed, 2023-07-21)" sodipodi:docname="cageimage.svg" viewBox="63.72 23.66 58.75 251.47">
  <sodipodi:namedview id="namedview1" pagecolor="#ffffff" bordercolor="#999999" borderopacity="1" inkscape:showpageshadow="0" inkscape:pageopacity="0" inkscape:pagecheckerboard="0" inkscape:deskcolor="#d1d1d1" inkscape:document-units="mm" inkscape:zoom="0.39843048" inkscape:cx="459.30221" inkscape:cy="869.66238" inkscape:window-width="1312" inkscape:window-height="724" inkscape:window-x="0" inkscape:window-y="25" inkscape:window-maximized="0" inkscape:current-layer="layer1"/>
  <defs id="defs1"/>
  <g inkscape:label="Layer 1" inkscape:groupmode="layer" id="layer1">
    <path id="rect1" style="fill:#4d4d4d;stroke-width:1.31835" d="m 76.385141,23.661605 c -3.108554,0 -5.611226,2.502363 -5.611226,5.610916 v 11.228335 c 0,3.108553 2.502672,5.610916 5.611226,5.610916 h 0.08733 c 3.108554,0 5.610917,-2.502363 5.610917,-5.610916 V 29.272521 c 0,-3.108553 -2.502363,-5.610916 -5.610917,-5.610916 z m 0.04366,2.232723 c 1.795405,0 3.2407,2.004595 3.2407,4.494864 v 8.994993 c 0,2.490268 -1.445295,4.494864 -3.2407,4.494864 -1.795405,0 -3.241009,-2.004596 -3.241009,-4.494864 v -8.994993 c 0,-2.490269 1.445604,-4.494864 3.241009,-4.494864 z"/>
    <path id="rect1-2" style="fill:#4d4d4d;stroke-width:1.31835" d="m 76.421039,55.734634 c -3.108554,0 -5.611226,2.502362 -5.611226,5.610916 v 11.228333 c 0,3.108554 2.502672,5.610914 5.611226,5.610914 h 0.08733 c 3.108554,0 5.610915,-2.50236 5.610915,-5.610914 V 61.34555 c 0,-3.108554 -2.502361,-5.610916 -5.610915,-5.610916 z m 0.04366,2.232723 c 1.795405,0 3.2407,2.004595 3.2407,4.494864 v 8.994992 c 0,2.490268 -1.445295,4.494862 -3.2407,4.494862 -1.795405,0 -3.241009,-2.004594 -3.241009,-4.494862 v -8.994992 c 0,-2.490269 1.445604,-4.494864 3.241009,-4.494864 z"/>
    <ellipse style="fill:#666666;stroke-width:1.31835" id="path4" cx="76.059212" cy="96.207207" rx="4.2720432" ry="4.2722158"/>
    <rect style="fill:#666666;stroke-width:1.31835" id="rect2" width="3.2110052" height="22.54257" x="74.814835" y="39.429962" ry="1.6055026"/>
    <path id="rect1-7" style="fill:#4d4d4d;stroke-width:1.31835" d="m 110.35201,88.520969 c -3.10856,0 -5.61123,2.502363 -5.61123,5.610917 v 11.228294 c 0,3.10855 2.50267,5.61092 5.61123,5.61092 h 0.0873 c 3.10855,0 5.61091,-2.50237 5.61091,-5.61092 V 94.131886 c 0,-3.108554 -2.50236,-5.610917 -5.61091,-5.610917 z m 0.0437,2.232723 c 1.7954,0 3.2407,2.004595 3.2407,4.494855 v 8.994963 c 0,2.49027 -1.4453,4.49486 -3.2407,4.49486 -1.79541,0 -3.24101,-2.00459 -3.24101,-4.49486 v -8.994963 c 0,-2.49026 1.4456,-4.494855 3.24101,-4.494855 z"/>
    <path id="rect1-2-1" style="fill:#4d4d4d;stroke-width:1.31835" d="m 110.3879,120.59396 c -3.10855,0 -5.61122,2.50236 -5.61122,5.61092 v 11.22833 c 0,3.10855 2.50267,5.61091 5.61122,5.61091 h 0.0873 c 3.10856,0 5.61092,-2.50236 5.61092,-5.61091 v -11.22833 c 0,-3.10856 -2.50236,-5.61092 -5.61092,-5.61092 z m 0.0437,2.23272 c 1.79541,0 3.2407,2.0046 3.2407,4.49487 v 8.99499 c 0,2.49027 -1.44529,4.49486 -3.2407,4.49486 -1.7954,0 -3.24101,-2.00459 -3.24101,-4.49486 v -8.99499 c 0,-2.49027 1.44561,-4.49487 3.24101,-4.49487 z"/>
    <rect style="fill:#666666;stroke-width:1.31835" id="rect2-3" width="3.2110052" height="22.54257" x="108.7817" y="104.28936" ry="1.6055026"/>
    <rect style="fill:#666666;stroke-width:1.31835" id="rect2-9" width="3.2110052" height="22.54257" x="74.778275" y="72.142807" ry="1.6055026"/>
    <path id="rect3" style="fill:#ff0000;stroke-width:1.31835" d="m 65.13866,96.869494 c -0.786263,0 -1.419035,0.63329 -1.419035,1.41955 v 1.68 c 0,0.786256 0.632772,1.419546 1.419035,1.419546 h 0.608748 v 41.31376 H 65.13866 c -0.786263,0 -1.419035,0.63277 -1.419035,1.41903 v 1.68052 c 0,0.78626 0.632772,1.41904 1.419035,1.41904 h 2.214335 17.412374 2.214335 c 0.786262,0 1.419035,-0.63278 1.419035,-1.41904 v -1.68052 c 0,-0.78626 -0.632773,-1.41903 -1.419035,-1.41903 h -0.608749 v -41.31376 h 0.608749 c 0.786262,0 1.419035,-0.63329 1.419035,-1.419546 v -1.68 c 0,-0.78626 -0.632773,-1.41955 -1.419035,-1.41955 z m 3.927409,4.519096 h 13.986226 v 41.31376 H 69.066069 Z"/>
    <path id="path5" style="fill:#4d4d4d;stroke-width:1.31835" d="m 109.9969,152.58528 c -3.10855,0 -5.61122,2.50237 -5.61122,5.61092 v 11.22834 c 0,3.10855 2.50267,5.61091 5.61122,5.61091 h 0.0873 c 3.10856,0 5.61092,-2.50236 5.61092,-5.61091 V 158.1962 c 0,-3.10855 -2.50236,-5.61092 -5.61092,-5.61092 z m 0.0437,2.23273 c 1.79541,0 3.2407,2.00459 3.2407,4.49486 v 8.99499 c 0,2.49027 -1.44529,4.49487 -3.2407,4.49487 -1.7954,0 -3.24101,-2.0046 -3.24101,-4.49487 v -8.99499 c 0,-2.49027 1.44561,-4.49486 3.24101,-4.49486 z"/>
    <rect style="fill:#666666;stroke-width:1.31835" id="rect7-5" width="3.2110052" height="22.54257" x="108.81344" y="137.06786" ry="1.6055026"/>
    <path id="path6" style="fill:#4d4d4d;stroke-width:1.31835" d="m 110.0328,184.65831 c -3.10855,0 -5.61123,2.50237 -5.61123,5.61092 v 11.22833 c 0,3.10856 2.50268,5.61092 5.61123,5.61092 h 0.0873 c 3.10855,0 5.61092,-2.50236 5.61092,-5.61092 v -11.22833 c 0,-3.10855 -2.50237,-5.61092 -5.61092,-5.61092 z m 0.0437,2.23273 c 1.79541,0 3.2407,2.00459 3.2407,4.49486 v 8.99499 c 0,2.49027 -1.44529,4.49486 -3.2407,4.49486 -1.7954,0 -3.24101,-2.00459 -3.24101,-4.49486 v -8.99499 c 0,-2.49027 1.44561,-4.49486 3.24101,-4.49486 z"/>
    <rect style="fill:#666666;stroke-width:1.31835" id="rect7" width="3.2110052" height="22.54257" x="108.4266" y="168.35378" ry="1.6055026"/>
    <rect style="fill:#666666;stroke-width:1.31835" id="rect8" width="3.2110052" height="22.54257" x="108.39004" y="201.06662" ry="1.6055026"/>
    <ellipse style="fill:#666666;stroke-width:1.31835" id="ellipse8" cx="109.99557" cy="223.96039" rx="4.2720432" ry="4.2722158"/>
    <path id="rect3-8" style="fill:#ff0000;stroke-width:1.31835" d="m 99.208719,224.7763 c -0.786263,0 -1.419035,0.63329 -1.419035,1.41955 v 1.68 c 0,0.78626 0.632772,1.41955 1.419035,1.41955 h 0.608748 v 41.31376 h -0.608748 c -0.786263,0 -1.419035,0.63277 -1.419035,1.41903 v 1.68052 c 0,0.78626 0.632772,1.41904 1.419035,1.41904 h 2.214331 17.41238 2.21433 c 0.78627,0 1.41904,-0.63278 1.41904,-1.41904 v -1.68052 c 0,-0.78626 -0.63277,-1.41903 -1.41904,-1.41903 h -0.60875 V 229.2954 h 0.60875 c 0.78627,0 1.41904,-0.63329 1.41904,-1.41955 v -1.68 c 0,-0.78626 -0.63277,-1.41955 -1.41904,-1.41955 z m 3.927411,4.5191 h 13.98622 v 41.31376 h -13.98622 z"/>
    <path id="path8" style="fill:#4d4d4d;stroke-width:1.31835" d="m 110.2518,23.661605 c -3.10856,0 -5.61123,2.502363 -5.61123,5.610916 v 11.228335 c 0,3.108553 2.50267,5.610916 5.61123,5.610916 h 0.0873 c 3.10855,0 5.61092,-2.502363 5.61092,-5.610916 V 29.272521 c 0,-3.108553 -2.50237,-5.610916 -5.61092,-5.610916 z m 0.0437,2.232723 c 1.7954,0 3.2407,2.004595 3.2407,4.494864 v 8.994993 c 0,2.490268 -1.4453,4.494864 -3.2407,4.494864 -1.79541,0 -3.24102,-2.004596 -3.24102,-4.494864 v -8.994993 c 0,-2.490269 1.44561,-4.494864 3.24102,-4.494864 z"/>
    <path id="path9" style="fill:#4d4d4d;stroke-width:1.31835" d="m 110.28769,55.734634 c -3.10855,0 -5.61123,2.502362 -5.61123,5.610916 v 11.228333 c 0,3.108554 2.50268,5.610914 5.61123,5.610914 h 0.0873 c 3.10856,0 5.61092,-2.50236 5.61092,-5.610914 V 61.34555 c 0,-3.108554 -2.50236,-5.610916 -5.61092,-5.610916 z m 0.0437,2.232723 c 1.79541,0 3.24071,2.004595 3.24071,4.494864 v 8.994992 c 0,2.490268 -1.4453,4.494862 -3.24071,4.494862 -1.7954,0 -3.24101,-2.004594 -3.24101,-4.494862 v -8.994992 c 0,-2.490269 1.44561,-4.494864 3.24101,-4.494864 z"/>
    <rect style="fill:#666666;stroke-width:1.31835" id="rect9" width="3.2110052" height="22.54257" x="108.68147" y="39.429962" ry="1.6055026"/>
    <rect style="fill:#666666;stroke-width:1.31835" id="rect10" width="3.2110052" height="22.54257" x="108.64491" y="72.142807" ry="1.6055026"/>
  </g>
</svg>