<?xml version="1.0" encoding="UTF-8" standalone="no"?>
<!-- Created with Inkscape (http://www.inkscape.org/) -->

<svg
   width="auto"
   height="100%"
   viewBox="0 0 43.773556 164.43234"
   version="1.1"
   id="svg1"
   xml:space="preserve"
   xmlns:inkscape="http://www.inkscape.org/namespaces/inkscape"
   xmlns:sodipodi="http://sodipodi.sourceforge.net/DTD/sodipodi-0.dtd"
   xmlns="http://www.w3.org/2000/svg"
   xmlns:svg="http://www.w3.org/2000/svg"
   preserveAspectRatio="xMidYMid meet"><sodipodi:namedview
     id="namedview1"
     pagecolor="#ffffff"
     bordercolor="#999999"
     borderopacity="1"
     inkscape:showpageshadow="0"
     inkscape:pageopacity="0"
     inkscape:pagecheckerboard="0"
     inkscape:deskcolor="#d1d1d1"
     inkscape:document-units="mm" /><defs
     id="defs1"><inkscape:path-effect
       effect="fillet_chamfer"
       id="path-effect6"
       is_visible="true"
       lpeversion="1"
       nodesatellites_param="F,0,1,1,0,1.4581629,0,1 @ F,0,0,1,0,0,0,1 @ F,0,0,1,0,0,0,1 @ F,0,0,1,0,0,0,1 @ F,0,0,1,0,0,0,1 @ F,0,0,1,0,0,0,1 @ F,0,0,1,0,0,0,1 @ F,0,0,1,0,0,0,1 @ F,0,0,1,0,0,0,1 @ F,0,0,1,0,1.6633786,0,1 @ F,0,0,1,0,1.8535568,0,1 @ F,0,0,1,0,0,0,1 @ F,0,0,1,0,0,0,1 @ F,0,0,1,0,1.5561281,0,1 @ F,0,0,1,0,1.8107214,0,1 @ F,0,0,1,0,0,0,1 @ F,0,0,1,0,0,0,1 @ F,0,0,1,0,0,0,1 @ F,0,0,1,0,0,0,1 @ F,0,0,1,0,0,0,1 @ F,0,0,1,0,0,0,1 @ F,0,0,1,0,0,0,1 @ F,0,0,1,0,1.4581629,0,1"
       radius="0"
       unit="px"
       method="auto"
       mode="F"
       chamfer_steps="1"
       flexible="false"
       use_knot_distance="true"
       apply_no_radius="true"
       apply_with_radius="true"
       only_selected="false"
       hide_knots="false" /><inkscape:path-effect
       effect="fillet_chamfer"
       id="path-effect5"
       is_visible="true"
       lpeversion="1"
       nodesatellites_param="F,0,0,1,0,4.8371419,0,1 @ F,0,0,1,0,0,0,1 @ F,0,0,1,0,0,0,1 @ F,0,1,1,0,4.325317,0,1 @ F,0,0,1,0,5.4112074,0,1 @ F,0,0,1,0,4.092525,0,1 @ F,0,0,1,0,0,0,1 @ F,0,0,1,0,0,0,1 @ F,0,0,1,0,4.325317,0,1"
       radius="0"
       unit="px"
       method="auto"
       mode="F"
       chamfer_steps="1"
       flexible="false"
       use_knot_distance="true"
       apply_no_radius="true"
       apply_with_radius="true"
       only_selected="false"
       hide_knots="false" /></defs><g
     inkscape:label="Layer 1"
     inkscape:groupmode="layer"
     id="layer1"
     transform="translate(-28.284062,-50.422247)"><path
       id="rect1"
       style="display:inline;fill:#d81bf1;fill-opacity:1;stroke-width:2.2"
       d="m 65.073031,51.880408 v 17.461096 c 0,0 -0.03097,1.869025 -0.303858,2.728516 -0.259531,0.817437 -1.21853,2.169376 -1.21853,2.169376 C 62.960132,74.915894 40.566909,90.557244 39.141797,93.36071 38.4961,94.63092 38.31084,97.412142 38.31084,97.412142 v 90.326268 h 4.266406 v -8.94105 l 24.701166,-16.44559 a 1.6633884,1.6633884 101.34521 0 0 0.46276,-2.30642 l -0.492677,-0.74 a 1.8535509,1.8535509 11.345285 0 0 -2.570099,-0.51567 l -22.10115,14.71446 V 136.22683 L 67.367698,119.7213 a 1.5561568,1.5561568 101.34478 0 0 0.432909,-2.15772 l -0.575849,-0.86493 a 1.8106909,1.8106909 11.344821 0 0 -2.510691,-0.50373 l -22.136821,14.73869 c -0.191677,-2.35455 0.379305,-34.863728 0.435546,-35.166473 0.293252,-1.578586 1.275978,-2.337181 1.275978,-2.337181 l 0.01016,-0.0078 C 52.017609,87.4934 65.862431,77.375695 65.862431,77.375695 c 0,0 2.200866,-1.947829 2.797457,-3.450142 0.557236,-1.403206 0.939479,-4.584043 0.939479,-4.584043 V 51.880408 a 1.4581629,1.4581629 45 0 0 -1.458163,-1.458163 h -1.61001 a 1.4581629,1.4581629 135 0 0 -1.458163,1.458163 z"
       sodipodi:nodetypes="ccscscccccccccccssscsccc"
       inkscape:export-filename="coral.svg"
       inkscape:export-xdpi="96"
       inkscape:export-ydpi="96"
       inkscape:path-effect="#path-effect6"
       inkscape:original-d="m 65.073031,50.422245 v 18.919259 c 0,0 -0.03097,1.869025 -0.303858,2.728516 -0.259531,0.817437 -1.21853,2.169376 -1.21853,2.169376 C 62.960132,74.915894 40.566909,90.557244 39.141797,93.36071 38.4961,94.63092 38.31084,97.412142 38.31084,97.412142 v 90.326268 h 4.266406 v -8.94105 l 26.085746,-17.36742 -2.441711,-3.66748 -23.644035,15.74168 v -37.27731 l 26.085746,-17.36794 -2.441711,-3.66747 -23.644035,15.74219 c -0.191677,-2.35455 0.379305,-34.863728 0.435546,-35.166473 0.293252,-1.578586 1.275978,-2.337181 1.275978,-2.337181 l 0.01016,-0.0078 C 52.017609,87.4934 65.862431,77.375695 65.862431,77.375695 c 0,0 2.200866,-1.947829 2.797457,-3.450142 0.557236,-1.403206 0.939479,-4.584043 0.939479,-4.584043 V 50.422245 Z" /><path
       id="rect4"
       style="fill:#6a6a6a;fill-opacity:1;stroke-width:2.2"
       d="m 28.284062,192.57555 v 0.46745 2.18384 15.30243 a 4.325317,4.325317 45 0 0 4.325317,4.32532 H 66.64641 a 5.4112074,5.4112074 135 0 0 5.411207,-5.41121 v -10.12402 a 4.092525,4.092525 45 0 0 -4.092525,-4.09252 H 55.428141 L 46.902563,193.043 v -0.97927 a 4.325317,4.325317 45 0 0 -4.325317,-4.32532 l -9.456042,0 a 4.8371419,4.8371419 135 0 0 -4.837142,4.83714 z"
       sodipodi:nodetypes="cccccccccc"
       inkscape:path-effect="#path-effect5"
       inkscape:original-d="m 28.284062,187.73841 v 5.30459 2.18384 19.62775 H 72.057617 V 195.22684 H 55.428141 L 46.902563,193.043 v -5.30459 z" /></g></svg>